# xmcd
#
# Track frame offsets:
#	150
#	16256
#	33982
#	55595
#	75787
#	102948
#	121346
#	134300
#	145714
#	165094
#	189552
#	211377
#
# Disc length: 3075 seconds
#
# Revision: 0
# Processed by: cddbd v1.5.1PL0 Copyright (c) Steve Scherf et al.
# Submitted via: dBpowerAMP V4.0
#
DISCID=8a0c010c
DTITLE=The Prairie Dogs - Brand New Heart
DYEAR=2003
DGENRE=Folk-Rock
TTITLE0=Give My Best
TTITLE1=Not You It's Me
TTITLE2=Soon As You Are Able
TTITLE3=Kelly
TTITLE4=Round And Around
TTITLE5=Let It Be Of You
TTITLE6=Brand New Heart
TTITLE7=Forever Now
TTITLE8=Poison Apples
TTITLE9=Calling My Name
TTITLE10=Wishing You Away
TTITLE11=On And On
EXTD=
EXTT0=
EXTT1=
EXTT2=
EXTT3=
EXTT4=
EXTT5=
EXTT6=
EXTT7=
EXTT8=
EXTT9=
EXTT10=
EXTT11=
PLAYORDER=
